<svg xmlns="http://www.w3.org/2000/svg" viewBox="0 0 108 108"><defs><style>.cls-1{fill:#003468;}</style></defs><title>Artboard 8</title><g id="Layer_4" data-name="Layer 4"><path class="cls-1" d="M73.26,39.14c-.11,0-.09.36,0,.36h0c.66,0,1.47,0,1.34,1S70,53.13,68.92,55.63a4,4,0,0,0-.35,1,3.74,3.74,0,0,0-.33-1c-1.35-3.1-5.64-14-5.73-15.17-.08-1,.68-1,1.34-1h0c.09,0,.13-.36,0-.36H49.82c-.09,0-.08.33,0,.36h0a3.81,3.81,0,0,1,1.66.36,2.92,2.92,0,0,1,.37.24,4.35,4.35,0,0,1,1.28,1.56c.19.36,10.05,24.93,10.09,25s0,.36-.52.7a5.42,5.42,0,0,1-2,.56h0c-.09,0-.07.36,0,.36H76.23c.09,0,.1-.34,0-.36h0a5.25,5.25,0,0,1-2-.55c-.56-.35-.52-.64-.52-.64l10.1-25.07A7.22,7.22,0,0,1,85.15,40a3.12,3.12,0,0,1,.38-.26,1.94,1.94,0,0,1,1.09-.27h0c.09,0,.12-.36,0-.36Z"/><path class="cls-1" d="M57.61,67.94h0a4,4,0,0,1-1.66-.37,2.12,2.12,0,0,1-.37-.24,4.16,4.16,0,0,1-1.28-1.56c-.19-.35-10-24.93-10.09-25s-.05-.36.51-.7a5.36,5.36,0,0,1,2-.55h0c.09,0,.08-.37,0-.37H31.21c-.09,0-.11.34,0,.37h0a5.49,5.49,0,0,1,2,.55c.56.35.52.64.52.64L23.65,65.77a7.59,7.59,0,0,1-1.36,1.64l-.38.25a2.08,2.08,0,0,1-1.09.28h0c-.09,0-.12.36,0,.36H34.17c.11,0,.09-.35,0-.36h0c-.66,0-1.48,0-1.34-1a29.29,29.29,0,0,1,1.13-3.38l.1-.33a2.3,2.3,0,0,0,.35,0h9a1.77,1.77,0,0,0,.36,0c0,.09.08.22.11.32A25.43,25.43,0,0,1,44.93,67c.08,1-.68,1-1.35,1h0c-.09,0-.14.36,0,.36H57.62C57.7,68.3,57.69,68,57.61,67.94Zm-21.54-10s.18-.38.24-.54c.95-2.43,1.82-4.61,2.21-5.53a4.22,4.22,0,0,0,.34-1,3.62,3.62,0,0,0,.34,1c.47,1.11,1.34,3.22,2.24,5.53.07.17.18.38.25.55a3,3,0,0,0-.55,0H36.63A3.18,3.18,0,0,0,36.07,57.89Z"/></g></svg>