<svg xmlns="http://www.w3.org/2000/svg" viewBox="0 0 1145.16 192.75"><defs><style>.cls-1{fill:#fff;}</style></defs><title>Asset 7</title><g id="Layer_2" data-name="Layer 2"><g id="Layer_2-2" data-name="Layer 2"><path class="cls-1" d="M171.63,88.54a.35.35,0,0,1,0-.7c14.54-4.58,28-15.13,28-41,0-35-23.64-46.85-75.28-46.85H.56C0,0-.14,2.22.45,2.38H.56c5.87,1,9.53,1.35,13.08,3.55S17,10,17,15.2V174.05c0,5.17.27,7-3.34,9.26S6.37,185.9.5,186.87a.18.18,0,0,1-.11,0c-.59.16-.48,2.37.11,2.37H129c54.23,0,77-21.54,77-55.09C206,109.43,194.47,94.25,171.63,88.54ZM81.44,35.71h24.88c19,0,30,2.91,30,20.14,0,11.2-6.89,21.17-29.29,21.17H81.44c-2.21,0-4.47.26-4.47.26a34.06,34.06,0,0,0,.32-4.41v-33a26.79,26.79,0,0,0-.38-4.52A33.26,33.26,0,0,0,81.44,35.71Zm23.85,117H81.44a34.32,34.32,0,0,0-4.42.32s.27-2.32.27-4.47V110.4a30.5,30.5,0,0,0-.32-4.47,34.56,34.56,0,0,0,4.47.33h21c16.75,0,37.32,0,37.32,23.2C139.81,146.7,125.11,152.73,105.29,152.73Z"/><path class="cls-1" d="M351.19,0c-.73,0-.57,2.31,0,2.37l.11,0c4.3,0,9.58,0,8.72,6.19-.49,6-26,42.83-35.06,56.82A17.33,17.33,0,0,0,322.26,72a16.89,16.89,0,0,0-2.95-6.56C306.66,46.59,285,16.06,284.41,8.58c-.52-6.39,4.43-6.19,8.71-6.19a.32.32,0,0,1,.11,0c.61-.05.84-2.33.13-2.33H200.5c-.54,0-.48,2.13.07,2.33l.11,0c4,.4,6.12.12,10.77,2.38a18.76,18.76,0,0,1,2.36,1.55c2.93,2.48,4.74,4.78,8.34,10.12l65.47,96.94v60.7c0,5.16.31,7-3.34,9.26s-7.25,2.58-13.13,3.59H271c-.59.16-.49,2.37.11,2.37H371.93c.59,0,.7-2.22.12-2.37l-.11,0c-5.88-1-9.54-1.37-13.11-3.59s-3.36-4.09-3.36-9.24V113.79L421,16.44c3.6-5.34,5.89-8.12,8.83-10.6.5-.42,1.71-1.22,2.45-1.69a13.13,13.13,0,0,1,7.08-1.77l.11,0c.6-.08.8-2.35.11-2.35H351.19Z"/><path class="cls-1" d="M586.26,0c-.59,0-.71,2.22-.13,2.37l.13,0c6,.74,8.77,1.37,12.33,3.58s3.34,4.09,3.34,9.24l0,95.48c0,21.78-12.48,38.51-37.23,38.51s-37.24-16.74-37.24-38.51V15.24c0-5.15-.3-7,3.35-9.27s6.56-2.77,12.34-3.58a.34.34,0,0,0,.11,0c.59-.15.48-2.35-.13-2.35H453.69c-.67,0-.53,2.22,0,2.33l.11,0c3.27.2,5.52.38,7.53,2.1,3,2.53,3.46,5.56,3.46,10.72v93.86c0,45.25,24.76,83.68,99.91,83.68s99.88-38.43,99.88-83.68V15.21h0c0-5.16-.3-7,3.35-9.24s7.23-2.59,13.12-3.58a.34.34,0,0,0,.11,0c.58-.15.49-2.37-.11-2.37Z"/><path class="cls-1" d="M1057.8,1.72c-.73,0-.57,2.31,0,2.37a.3.3,0,0,1,.11,0c4.3,0,9.58,0,8.72,6.19-.49,6-30.24,82.23-37.07,98.42a29.13,29.13,0,0,0-2.23,6.6,25.19,25.19,0,0,0-2.17-6.57c-8.76-20.13-36.58-91-37.21-98.47-.51-6.38,4.43-6.19,8.72-6.19a.3.3,0,0,1,.11,0c.61-.06.84-2.34.13-2.34H905.62c-.54,0-.49,2.13.06,2.34l.11,0c4,.4,6.13.13,10.78,2.39A18.57,18.57,0,0,1,918.92,8a28.15,28.15,0,0,1,8.35,10.12c1.19,2.3,65.21,161.81,65.46,162.33s.32,2.32-3.33,4.58-7.25,2.58-13.13,3.58l-.11,0c-.59.15-.49,2.37.11,2.37H1077v0c.59,0,.71-2.21.13-2.37h-.11c-5.89-1-9.54-1.38-13.12-3.59s-3.35-4.16-3.35-4.16l65.56-162.72c3.59-5.34,5.88-8.12,8.83-10.6a25.13,25.13,0,0,1,2.45-1.69,13.11,13.11,0,0,1,7.08-1.78h.11c.59-.08.79-2.36.1-2.36Z"/><path class="cls-1" d="M956.22,188.65h-.11c-4-.43-6.14-.16-10.77-2.37a15.37,15.37,0,0,1-2.37-1.56,27.66,27.66,0,0,1-8.35-10.12c-1.18-2.32-65.21-161.82-65.48-162.36s-.32-2.31,3.34-4.57,7.27-2.59,13.14-3.56h.11c.59-.16.48-2.42-.11-2.42H784.87v.05c-.59,0-.76,2.21-.16,2.37h.1c5.93,1,9.54,1.4,13.14,3.61s3.34,4.15,3.34,4.15L735.76,174.6c-3.61,5.33-5.93,8.13-8.83,10.61-.54.43-1.73,1.18-2.48,1.67a13.22,13.22,0,0,1-7.06,1.77h-.1c-.6.11-.81,2.37-.11,2.37H804c.75,0,.59-2.31,0-2.37h-.11c-4.31,0-9.58-.05-8.72-6.19.15-1.89,3.13-10.5,7.35-22,.22-.6.67-2.11.67-2.11a15.63,15.63,0,0,0,2.26.29h58.23a11.38,11.38,0,0,0,2.32-.26c.23.61.53,1.47.74,2.07,4.07,11.17,6.9,19.64,7.1,22,.54,6.36-4.42,6.19-8.72,6.19h-.11c-.59.06-.86,2.37-.11,2.37h91.33C956.81,191,956.75,188.87,956.22,188.65ZM816.41,123.42s1.11-2.43,1.52-3.49C824.09,104.17,829.79,90,832.31,84a29.35,29.35,0,0,0,2.21-6.63A24.72,24.72,0,0,0,836.67,84c3.11,7.23,8.71,20.92,14.6,35.88.43,1.08,1.14,2.48,1.57,3.57a20.7,20.7,0,0,0-3.57-.3H820A22.16,22.16,0,0,0,816.41,123.42Z"/></g></g></svg>